<?xml version="1.0" encoding="utf-8"?>
<!-- Generator: Adobe Illustrator 24.2.1, SVG Export Plug-In . SVG Version: 6.00 Build 0)  -->
<svg version="1.1" id="Layer_1" xmlns="http://www.w3.org/2000/svg" xmlns:xlink="http://www.w3.org/1999/xlink" x="0px" y="0px"
	 viewBox="0 0 461 78.4" style="enable-background:new 0 0 461 78.4;" xml:space="preserve">
<style type="text/css">
	.st0{fill:#26533A;}
</style>
<g>
	<g>
		<path class="st0" d="M84.2,40c0-5.9,2.4-9.7,7.5-9.7c3.5,0,6.2,2.1,6.4,5.6h-2.5c-0.2-2.1-1.7-3.3-4.1-3.3c-2.5,0-4.5,1.8-4.5,4.5
			v5.6c0,2.5,2.1,4.5,4.6,4.5c2.4,0,4-1,4.3-3.5h2.5c-0.2,3.4-3,5.7-6.8,5.7C86.8,49.3,84.2,45.6,84.2,40"/>
	</g>
	<polygon class="st0" points="114.3,40.7 105.8,40.7 105.8,48.9 103.2,48.9 103.2,30.7 105.8,30.7 105.8,38.4 114.3,38.4 
		114.3,30.7 116.9,30.7 116.9,48.9 114.3,48.9 	"/>
	<rect x="122.9" y="30.7" class="st0" width="2.5" height="18.2"/>
	<g>
		<path class="st0" d="M130.6,40c0-5.9,2.4-9.7,7.5-9.7c3.5,0,6.2,2.1,6.4,5.6H142c-0.2-2.1-1.7-3.3-4.1-3.3c-2.5,0-4.5,1.8-4.5,4.5
			v5.6c0,2.5,2.1,4.5,4.6,4.5c2.4,0,4-1,4.3-3.5h2.5c-0.2,3.4-3,5.7-6.8,5.7C133.2,49.3,130.6,45.6,130.6,40"/>
	</g>
	<path class="st0" d="M152.5,42.3h5.8l-2.8-8.8h-0.1L152.5,42.3z M159,44.4h-7.1l-1.5,4.5h-2.7l6.3-18.2h2.8l6.3,18.2h-2.7L159,44.4
		z"/>
	<g>
		<path class="st0" d="M173.8,30.3c3.6,0,6.3,2.1,6.6,5.6h-2.5c-0.2-2.1-1.7-3.3-4.3-3.3c-2.7,0-4.6,1.8-4.6,4.5v5.6
			c0,2.5,2,4.5,4.7,4.5c2.8,0,4.4-1.6,4.4-4.4v-1.2H174v-2.3h6.7V49h-2.4l-0.1-1.9c-0.9,1.4-2.3,2.3-4.6,2.3c-4.6,0-7.3-3.6-7.3-9.3
			C166.1,33.9,168.5,30.3,173.8,30.3"/>
		<path class="st0" d="M198,42.6V37c0-2.8-2.2-4.5-5-4.5s-5,1.7-5,4.5v5.6c0,2.8,2.2,4.5,5,4.5C195.7,47.1,198,45.4,198,42.6
			 M193,49.3c-5.5,0-7.8-3.8-7.8-9.5s2.3-9.5,7.8-9.5s7.8,3.8,7.8,9.5S198.4,49.3,193,49.3"/>
		<path class="st0" d="M215.7,35.1c0,1.7,0.9,2.4,2.9,2.9l2.9,0.8c3.2,0.9,4.9,2.2,4.9,5.2c0,3.2-3.1,5.2-6.8,5.2
			c-3.6,0-6.8-1.7-7.1-5.7h2.5c0.3,2.5,2.1,3.5,4.5,3.5s4.3-1,4.3-2.9c0-1.6-0.9-2.4-2.8-2.9l-3.6-1c-3-0.8-4.4-2.4-4.4-5.1
			s2.5-4.8,6.2-4.8c3.5,0,6.2,1.6,6.6,5.3h-2.5c-0.2-2.4-2-3.1-4-3.1C217.1,32.5,215.7,33.5,215.7,35.1"/>
	</g>
	<polygon class="st0" points="228.7,30.7 242.1,30.7 242.1,33 236.7,33 236.7,48.9 234.2,48.9 234.2,33 228.7,33 	"/>
	<path class="st0" d="M247.4,42.3h5.8l-2.8-8.8h-0.1L247.4,42.3z M253.8,44.4h-7.1l-1.5,4.5h-2.6l6.3-18.2h2.8l6.3,18.2h-2.7
		L253.8,44.4z"/>
	<polygon class="st0" points="258.4,30.7 271.8,30.7 271.8,33 266.3,33 266.3,48.9 263.8,48.9 263.8,33 258.4,33 	"/>
	<polygon class="st0" points="275.3,30.7 287.4,30.7 287.4,33 277.8,33 277.8,38.5 286.1,38.5 286.1,40.8 277.8,40.8 277.8,46.6 
		287.4,46.6 287.4,48.9 275.3,48.9 	"/>
	<g>
		<path class="st0" d="M311.4,30.7h2.5v11.7c0,4.3-2.7,6.9-6.8,6.9c-4.1,0-6.8-2.6-6.8-6.9V30.7h2.5v11.9c0,2.8,1.6,4.5,4.3,4.5
			c2.8,0,4.3-1.7,4.3-4.5V30.7L311.4,30.7z"/>
	</g>
	<polygon class="st0" points="330.9,45.9 330.9,30.7 333.4,30.7 333.4,48.9 329.8,48.9 322.3,33.7 322.2,33.7 322.2,48.9 
		319.7,48.9 319.7,30.7 323.3,30.7 330.8,45.9 	"/>
	<rect x="339.4" y="30.7" class="st0" width="2.5" height="18.2"/>
	<polygon class="st0" points="353.7,45.9 358.2,30.7 361,30.7 355.1,48.9 352.2,48.9 346.4,30.7 349.1,30.7 353.6,45.9 	"/>
	<polygon class="st0" points="365.4,30.7 377.5,30.7 377.5,33 368,33 368,38.5 376.3,38.5 376.3,40.8 368,40.8 368,46.7 377.5,46.7 
		377.5,48.9 365.4,48.9 	"/>
	<g>
		<path class="st0" d="M390.4,39.1c1.3,0,2.1-1,2.1-2.1v-2c0-1.2-0.8-2-2.1-2h-5.2v6.1C385.1,39.1,390.4,39.1,390.4,39.1z
			 M385.1,41.2v7.7h-2.5V30.7h6.8c1.9,0,3.4,0.4,4.3,1.3c1,0.9,1.4,2.2,1.4,3.9c0,1.6-0.4,2.9-1.3,3.9c-0.7,0.7-1.6,1.2-3,1.4
			l4.5,7.8h-2.9l-4.3-7.7L385.1,41.2L385.1,41.2L385.1,41.2z"/>
		<path class="st0" d="M402.2,35.2c0,1.7,0.9,2.4,2.9,2.9l2.9,0.8c3.2,0.9,4.9,2.2,4.9,5.2c0,3.2-3.1,5.2-6.8,5.2s-6.8-1.7-7.1-5.7
			h2.5c0.3,2.5,2.1,3.5,4.5,3.5s4.3-1,4.3-2.9c0-1.6-0.9-2.4-2.8-2.9l-3.6-1c-3-0.8-4.4-2.4-4.4-5.1s2.5-4.8,6.2-4.8
			c3.5,0,6.2,1.6,6.6,5.3h-2.5c-0.2-2.4-2-3.1-4-3.1C403.7,32.6,402.2,33.5,402.2,35.2"/>
	</g>
	<rect x="417.9" y="30.7" class="st0" width="2.5" height="18.2"/>
	<polygon class="st0" points="424.5,30.7 437.9,30.7 437.9,33 432.4,33 432.4,48.9 429.9,48.9 429.9,33 424.5,33 	"/>
	<polygon class="st0" points="440,30.7 442.8,30.7 447.4,39.2 452,30.7 454.7,30.7 448.6,41.7 448.6,48.9 446.1,48.9 446.1,41.7 	
		"/>
	<g>
		<path class="st0" d="M40.6,6.3h-2.5c2.5,10,10.7,16.4,22.5,17.9v39.3l0,0v6.6c-0.1,0-0.1,0-0.2,0L60.1,70l0,0
			c-14.7-2.3-21-14.8-22.5-22.1l0,0c-0.3-1.4-0.6-4.2-0.5-4.2c0.1,0.2,0.3,0.8,0.7,1.7c0.5,1,1,2,1.7,2.9c2.6,4.1,7.2,9,14.5,11.1
			l-0.4-2.7c-12.9-4.3-16.3-18.9-16.3-21.1l0,0l0,0v-0.1c-0.1-1.2-0.3-3.6-0.1-3.6c0.1,0.2,0.3,0.9,0.7,1.8c0.5,1,1,1.9,1.7,2.9
			c2.4,3.7,6.3,8.1,12.5,10.4l-0.5-2.8c-10.2-4.6-13.7-15.8-14.2-19.4l0,0c-0.2-1-0.7-5.9-0.1-4.6l0,0c0.6,1.4,1.4,2.8,2.3,4.2
			c2.1,3.3,5.4,7,10.4,9.5l-0.5-3c-6-3.6-9.3-9.6-10.9-14c-0.8-2-1.9-5.3-2.3-9H36c-0.4,3.4-1.4,6.4-2.1,8.5
			C32.4,20.8,29.2,27,23,30.8l-0.5,3.1c4.9-2.4,8.1-6.2,10.2-9.4c0.9-1.4,1.6-2.8,2.3-4.1c0.6-1.3,0.1,3.6-0.1,4.6l0,0
			c-0.5,3.6-3.9,14.7-14,19.4l-0.5,2.8c6-2.3,9.9-6.7,12.3-10.3c0.6-0.9,1.1-1.9,1.6-2.8c0.5-1,0.6-1.7,0.8-1.9c0.2,0,0,2.5-0.1,3.7
			l0,0l0,0c0,2.2-3.4,16.6-16.1,21l-0.4,2.7c7.2-2.1,11.7-7,14.3-11c0.6-1,1.1-1.9,1.6-2.8c0.4-0.9,0.6-1.6,0.7-1.8
			c0.2,0-0.1,2.9-0.5,4.2l0,0c-1.5,7.3-7.8,19.8-22.5,22.1l0,0l-0.3,0.1c-0.1,0-0.1,0-0.2,0v-6.6l0,0V24.2
			c11.9-1.5,20-7.9,22.5-17.9h-2.5c-1.4,5-6.1,14.1-21.3,15.6L9.2,22v41.5v9.3c0.8,0,1.6-0.1,2.3-0.2h0.1h0.1
			c14.6-1.9,21.8-13,24.4-21.1c2.6,8.2,9.8,19.3,24.4,21.1h0.1h0.1c0.8,0.1,1.5,0.2,2.3,0.2v-5.2v-4.1V22l-1.1-0.1
			C46.7,20.4,42,11.2,40.6,6.3"/>
		<path class="st0" d="M29.4,1.1l-0.3,0.7c-4,9.1-10.8,12.8-26.1,14l-1.1,0.1v48.8l2.4,1.4v-48c15-1.4,22.4-5.4,26.7-14.7h10.2
			c4.4,9.4,11.7,13.5,26.7,14.9v47.8l2.4-1.4V16.1L69.2,16c-15.1-1.2-22.1-5-26.1-14.2l-0.4-0.7H29.4L29.4,1.1z"/>
		<path class="st0" d="M29.9,70.4h-0.6v0.2c0,0.3-0.3,0.4-0.4,0.4l0,0h-0.8v0.6h1.2v3.2h-1.2v0.6H31v-0.6h-1.1V70.4z"/>
		<path class="st0" d="M34.9,74.2c0,0.4-0.4,0.7-1,0.7s-1-0.3-1-0.7v-0.4c0-0.4,0.4-0.7,1-0.7s1,0.3,1,0.7V74.2z M33.1,71.8v-0.3
			c0-0.4,0.4-0.7,0.9-0.7s0.9,0.2,0.9,0.7v0.3c0,0.4-0.4,0.7-0.9,0.7S33.1,72.3,33.1,71.8 M34.8,72.8c0.5-0.2,0.7-0.6,0.7-1.1
			c0-0.8-0.7-1.3-1.6-1.3s-1.6,0.5-1.6,1.3c0,0.5,0.2,0.9,0.7,1.1c-0.5,0.2-0.9,0.6-0.9,1.3c0,1,0.8,1.4,1.7,1.4
			c0.9,0,1.7-0.5,1.7-1.4C35.6,73.4,35.3,73,34.8,72.8"/>
		<path class="st0" d="M39.9,73.9c0,0.5-0.4,0.9-1,0.9s-1-0.4-1-0.9v-0.4c0-0.5,0.4-0.9,1-0.9s1,0.4,1,0.9V73.9z M39,72.1
			c-0.4,0-0.8,0.2-1.1,0.5v-0.5c0-0.7,0.4-1.3,1-1.3s0.8,0.3,0.9,0.8h0.6c-0.1-0.8-0.6-1.3-1.5-1.3c-1.2,0-1.7,1.1-1.7,2.7
			s0.4,2.5,1.7,2.5c1.1,0,1.7-0.9,1.7-1.8C40.6,72.7,40,72.1,39,72.1"/>
		<path class="st0" d="M41.9,70.4V71H44c-0.7,0.8-1.4,2.2-1.4,4.4h0.7c0-3.1,1.4-4.4,1.6-4.6v-0.4H41.9z"/>
	</g>
</g>
</svg>
